<svg id="SvgjsSvg1006" width="288" height="288" xmlns="http://www.w3.org/2000/svg" version="1.1" xmlns:xlink="http://www.w3.org/1999/xlink" xmlns:svgjs="http://svgjs.com/svgjs"><defs id="SvgjsDefs1007"></defs><g id="SvgjsG1008"><svg xmlns="http://www.w3.org/2000/svg" enable-background="new 0 0 700 300" viewBox="0 0 700 300" width="288" height="288"><path fill="#0e0d0d" d="
M474.000000,301.000000 
	C316.000031,301.000000 158.500076,301.000000 1.000084,301.000000 
	C1.000056,201.000061 1.000056,101.000122 1.000028,1.000138 
	C234.333206,1.000092 467.666412,1.000092 700.999756,1.000046 
	C700.999817,100.999855 700.999817,200.999710 700.999878,300.999786 
	C625.500000,301.000000 550.000000,301.000000 474.000000,301.000000 
M135.889374,164.776993 
	C136.558289,166.563477 137.227188,168.349960 137.992096,170.789536 
	C138.871536,172.239288 139.750961,173.689056 140.850220,175.744522 
	C141.808029,176.868698 142.765839,177.992874 144.059006,179.681671 
	C145.365829,180.802979 146.672653,181.924286 148.281128,183.586823 
	C149.115189,184.176254 149.949234,184.765686 151.127228,185.878906 
	C152.406891,186.938156 153.686539,187.997391 155.251907,189.634705 
	C156.944824,191.489182 158.637756,193.343643 160.537231,195.751221 
	C160.907745,196.198517 161.278244,196.645798 161.865387,197.807373 
	C163.112915,200.608887 164.360443,203.410400 165.884262,206.832367 
	C168.879974,203.784271 171.525330,201.081833 174.182739,198.391296 
	C177.849350,194.679001 179.954834,190.295074 180.024963,184.174484 
	C179.980270,182.785568 179.935593,181.396667 180.100555,179.202652 
	C178.113144,174.998352 176.125732,170.794067 173.877487,166.041534 
	C172.611252,165.012039 171.345001,163.982529 169.795456,162.394531 
	C168.634171,161.535507 167.472900,160.676483 166.009338,159.310654 
	C165.431717,158.538040 164.854095,157.765442 164.422958,156.299927 
	C164.404022,155.600708 164.385071,154.901474 164.681152,153.543976 
	C165.713715,150.363434 166.746262,147.182877 168.239655,143.534119 
	C169.204666,142.107346 170.169662,140.680573 171.715454,138.943848 
	C173.164413,137.340652 174.613373,135.737473 176.684494,133.883041 
	C178.817139,131.933228 180.949783,129.983414 183.708557,127.835526 
	C185.492249,126.231712 187.275955,124.627899 189.679688,122.814857 
	C191.117783,121.204865 192.555878,119.594864 194.571289,117.609825 
	C195.698502,114.735123 196.825714,111.860420 198.305267,108.299820 
	C197.760208,104.205025 197.215164,100.110237 196.575882,95.351181 
	C192.489746,90.276726 188.403610,85.202271 183.969360,79.695496 
	C181.901123,84.159317 180.379761,87.442810 178.283386,91.075912 
	C176.779495,93.019814 175.275604,94.963715 173.187271,97.176712 
	C171.489365,98.791588 169.791458,100.406464 167.466705,102.230858 
	C166.312531,103.257545 165.158371,104.284233 163.419159,105.547157 
	C161.474152,107.300995 159.529144,109.054832 156.994034,111.046074 
	C155.342880,112.702148 153.691727,114.358223 151.442245,116.268021 
	C150.265549,117.793228 149.088867,119.318436 147.322556,121.196083 
	C145.136917,124.114105 142.515198,126.804245 140.848587,129.993500 
	C136.116257,139.049393 132.984238,148.551483 134.933914,159.783264 
	C135.245880,161.195938 135.557846,162.608597 135.889374,164.776993 
M226.676941,129.487473 
	C225.838303,128.899155 224.999664,128.310822 223.814133,127.176964 
	C221.872696,125.462440 219.931274,123.747910 217.747604,121.495117 
	C217.179855,120.970581 216.612106,120.446037 215.830673,119.300575 
	C214.286530,117.505920 212.742401,115.711266 211.132065,113.125923 
	C210.578369,110.988892 210.024673,108.851852 209.263474,105.913925 
	C203.222687,112.605865 195.824326,116.981552 194.375702,126.747246 
	C194.840347,130.871582 195.305008,134.995926 195.928284,139.759506 
	C196.554077,140.877502 197.179871,141.995514 198.037659,143.745453 
	C200.286682,145.873566 202.535690,148.001663 205.125992,150.702194 
	C206.717041,151.905411 208.308105,153.108627 209.954834,154.942184 
	C210.087509,155.340973 210.220169,155.739761 210.254868,156.797653 
	C210.274261,157.454361 210.293640,158.111053 210.085709,159.551605 
	C208.888397,162.984131 207.691071,166.416641 206.028168,170.243912 
	C204.963257,171.725052 203.898346,173.206192 202.248444,174.980240 
	C200.780853,176.539536 199.313278,178.098831 197.231186,179.920609 
	C195.450867,181.535980 193.670547,183.151367 191.264511,185.010696 
	C189.436691,186.649506 187.608871,188.288315 185.193481,190.119675 
	C184.074936,191.309464 182.956390,192.499252 181.243469,194.047714 
	C179.912033,196.696640 178.580597,199.345551 176.930679,202.752853 
	C176.810272,205.504669 176.689865,208.256500 176.456085,211.724747 
	C177.738129,221.143158 184.754044,226.384384 190.940155,232.232666 
	C193.516495,227.664871 195.925812,223.393234 198.857620,218.808426 
	C199.917664,217.573151 200.977722,216.337891 202.646805,214.842010 
	C204.401657,213.222275 206.156494,211.602539 208.497101,209.805161 
	C209.383789,208.988647 210.270477,208.172150 211.721924,206.972031 
	C213.576202,205.361481 215.430496,203.750931 217.877487,201.928146 
	C218.905823,200.888504 219.934158,199.848862 221.562119,198.557922 
	C223.374374,196.401123 225.186646,194.244324 227.612686,191.778534 
	C236.980637,181.279282 241.064301,169.009125 240.008499,154.192352 
	C239.637131,152.123505 239.265747,150.054642 238.872635,147.274597 
	C237.743134,144.823105 236.613647,142.371613 235.075607,139.356201 
	C233.921387,137.837662 232.767166,136.319138 231.357803,134.158844 
	C229.902237,132.780197 228.446686,131.401550 226.676941,129.487473 
M330.417572,149.480545 
	C333.017975,154.097290 335.479340,158.801865 338.305817,163.275757 
	C339.123657,164.570328 340.980652,165.968094 342.376556,165.984116 
	C345.556366,166.020584 348.745667,165.230347 352.519897,164.692093 
	C348.973267,159.080963 345.998169,154.130997 342.758423,149.360764 
	C341.342926,147.276581 341.272644,145.787613 342.810944,143.691574 
	C345.708435,139.743561 348.242340,135.528732 351.254639,130.924622 
	C348.657379,130.924622 346.808960,131.162460 345.045166,130.877045 
	C340.868195,130.201096 338.525513,131.696747 336.686371,135.655396 
	C335.076294,139.121048 332.130859,141.966293 329.922760,144.147888 
	C329.922760,134.077545 329.922760,124.007195 329.922760,113.726082 
	C326.218231,113.932335 322.774536,114.124069 319.065063,114.330597 
	C319.065063,131.594849 319.065063,148.459412 319.065063,165.183197 
	C322.936707,165.183197 326.489990,165.183197 329.673035,165.183197 
	C329.673035,159.855865 329.673035,154.877686 330.417572,149.480545 
M540.714172,135.234314 
	C536.433533,139.930450 535.706970,145.644913 536.335388,151.593491 
	C536.961731,157.522247 539.356934,162.380295 545.206848,165.061829 
	C550.904602,167.673599 554.706970,164.480225 558.690125,160.924362 
	C560.925232,164.869904 564.117126,167.657043 568.444397,165.401657 
	C570.613770,164.270981 571.703247,161.068420 573.281128,158.802902 
	C572.563965,158.661728 571.846863,158.520554 571.129761,158.379379 
	C570.364441,156.986435 568.994873,155.617050 568.939514,154.196442 
	C568.712646,148.374512 568.899170,142.536957 568.909241,136.705139 
	C568.922363,129.113312 568.912476,121.521439 568.912476,113.669861 
	C564.986084,113.951088 561.433655,114.205521 557.508301,114.486671 
	C557.508301,120.077187 557.508301,125.135841 557.508301,128.464981 
	C551.445618,130.793411 546.339417,132.754471 540.714172,135.234314 
M465.773041,124.531021 
	C465.974152,122.921135 466.175232,121.311256 466.396362,119.540833 
	C459.267120,116.986946 452.364960,115.878059 445.309814,118.688858 
	C439.384583,121.049492 435.753479,125.340103 435.379974,131.798264 
	C435.029968,137.850342 438.477631,141.721909 443.577667,144.358414 
	C446.527008,145.883118 449.703430,147.077866 452.377563,148.982788 
	C453.866943,150.043762 454.535950,152.256363 455.574707,153.949966 
	C453.715546,155.027313 451.950653,156.701355 449.970673,157.014160 
	C447.992218,157.326736 445.692017,156.543777 443.725952,155.757935 
	C441.206177,154.750809 438.879425,153.260834 435.973572,151.715118 
	C435.274933,155.804077 434.667816,159.357513 433.986237,163.346588 
	C443.014862,166.408264 451.856842,168.309464 460.511322,163.135040 
	C470.264465,157.303741 470.155884,145.496445 460.440002,139.698425 
	C457.596497,138.001541 454.295197,136.990540 451.668457,135.039520 
	C449.836456,133.678772 448.796265,131.251999 447.402374,129.301422 
	C449.863068,128.466217 452.399384,126.790703 454.765747,127.003677 
	C457.882019,127.284149 460.864746,129.048676 464.283325,130.315338 
	C464.783875,128.403366 465.189941,126.852272 465.773041,124.531021 
M293.401245,166.195038 
	C296.022919,165.812210 298.769226,165.801102 301.241425,164.972366 
	C307.143463,162.993881 311.336243,159.217468 312.136444,152.637405 
	C312.969330,145.788559 309.208313,141.719437 303.596344,138.838242 
	C301.082825,137.547806 298.297180,136.628098 296.096130,134.939224 
	C294.358521,133.605942 293.326111,131.353592 291.980530,129.509430 
	C294.388306,128.592865 296.869476,126.786369 299.185944,126.977341 
	C302.320831,127.235809 305.329315,129.027084 309.116089,130.428787 
	C309.872223,126.657280 310.563263,123.210495 311.294189,119.564819 
	C303.157410,116.831291 295.567139,115.609581 288.064056,119.539406 
	C283.165894,122.104866 280.262756,126.193092 280.006348,131.881042 
	C279.750336,137.560684 282.758484,141.306961 287.422913,143.919632 
	C290.318848,145.541748 293.596527,146.587341 296.233856,148.528809 
	C297.959991,149.799515 298.846954,152.210083 300.109802,154.110107 
	C297.887207,155.113525 295.457275,157.248871 293.484680,156.887527 
	C289.222229,156.106750 285.194336,154.045456 280.500793,152.295609 
	C279.927887,155.736465 279.318512,159.396378 278.561371,163.943771 
	C283.529633,164.741257 288.052368,165.467239 293.401245,166.195038 
M515.251770,156.438950 
	C510.939941,157.029465 510.187744,154.336060 510.187653,150.949280 
	C510.187500,144.346344 510.187592,137.743408 510.187592,130.800400 
	C506.299652,131.094437 502.859375,131.354614 499.220062,131.629852 
	C499.220062,140.329330 498.941498,148.634415 499.303192,156.911514 
	C499.625824,164.295303 507.510498,168.220596 513.990479,164.510620 
	C515.970215,163.377167 517.750427,161.895233 519.774109,160.465424 
	C521.936584,164.193695 524.303894,167.209518 529.316284,165.700226 
	C533.558228,164.422943 532.819336,161.139999 533.167542,158.444168 
	C526.620605,155.250046 530.578674,149.855652 530.039795,145.699738 
	C529.413452,140.869843 529.893738,135.896469 529.893738,130.723785 
	C526.069763,131.093887 522.653748,131.424500 519.088501,131.769547 
	C519.088501,138.579681 519.292847,144.912933 518.952881,151.216812 
	C518.861450,152.912216 517.114563,154.518341 515.251770,156.438950 
M359.410889,169.143219 
	C356.650879,170.156769 353.890869,171.170319 351.115997,172.189331 
	C354.952972,180.388748 356.167633,180.776794 363.765167,177.216354 
	C369.410583,174.570724 372.893951,170.140717 374.916077,164.454498 
	C377.529083,157.106842 380.003326,149.709610 382.509796,142.324387 
	C383.750854,138.667740 384.930298,134.990173 386.149780,131.284973 
	C382.468933,131.284973 379.397705,131.284973 376.790375,131.284973 
	C374.535004,138.959122 372.412567,146.181030 370.290131,153.402924 
	C369.933258,153.356445 369.576355,153.309967 369.219482,153.263489 
	C367.074524,145.822327 364.929535,138.381149 362.847137,131.157013 
	C359.269440,131.157013 355.842285,131.157013 351.988953,131.157013 
	C355.692932,141.250748 359.019653,150.977432 362.869171,160.492630 
	C364.486511,164.490356 364.092499,167.046860 359.410889,169.143219 
M597.768311,159.570770 
	C602.354736,165.679672 608.847351,167.831161 616.819885,165.727692 
	C623.318848,164.013000 627.044495,159.564453 627.966797,153.069290 
	C629.042847,145.490982 629.193848,137.977386 622.073120,132.698532 
	C621.282898,132.112717 620.356018,131.666916 619.432617,131.311996 
	C607.835938,126.854774 596.940613,133.021500 595.715637,145.300949 
	C595.271790,149.749939 596.747925,154.390472 597.768311,159.570770 
M417.130432,162.444733 
	C417.558014,160.285736 417.985596,158.126724 418.476227,155.649384 
	C403.223816,158.873032 400.102905,158.003799 399.222046,150.723648 
	C399.342621,150.608871 399.461365,150.395813 399.584076,150.393494 
	C404.731049,150.296707 409.889709,150.384247 415.018402,150.032791 
	C416.466858,149.933533 418.646484,148.871063 419.091309,147.712875 
	C421.375580,141.765381 418.100128,134.308456 412.431213,131.631927 
	C404.368378,127.825150 393.808319,131.125656 389.908783,138.671173 
	C385.287933,147.612457 388.089203,159.484222 395.873535,163.949890 
	C401.782227,167.339539 412.326904,166.996811 417.130432,162.444733 
M489.333649,156.903427 
	C488.150696,155.841629 486.030396,154.848770 485.946381,153.706146 
	C485.573547,148.637131 485.784821,143.525146 485.784821,138.093658 
	C489.091278,138.093658 491.529633,138.093658 494.228729,138.093658 
	C494.438049,135.706726 494.618469,133.649658 494.845612,131.059677 
	C491.666199,131.059677 489.089752,131.059677 486.173645,131.059677 
	C486.173645,127.845078 486.173645,125.121613 486.173645,121.983788 
	C482.115356,123.215454 478.570374,124.291328 474.934998,125.394646 
	C474.934998,127.499237 474.934998,129.127945 474.934998,130.884232 
	C473.473236,131.067108 472.228424,131.222839 470.763794,131.406082 
	C470.549103,133.666183 470.353729,135.722855 470.160248,137.759323 
	C472.151367,138.080002 473.545685,138.304550 474.901367,138.522888 
	C474.901367,144.840073 474.773315,150.822540 474.938019,156.796951 
	C475.097168,162.570297 480.125244,166.496964 486.315338,165.961441 
	C493.065063,165.377502 494.574890,163.468491 493.978241,156.029877 
	C492.686798,156.308929 491.419891,156.582657 489.333649,156.903427 
M589.322571,133.741791 
	C588.599792,132.812424 587.904175,131.115814 587.149597,131.089142 
	C584.196655,130.984802 581.225037,131.408035 578.044189,131.651779 
	C578.044189,143.059311 578.044189,154.125137 578.044189,165.266220 
	C581.835022,165.266220 585.393066,165.266220 589.296265,165.266220 
	C589.296265,154.880722 589.296265,144.758789 589.322571,133.741791 
M582.815674,113.206177 
	C578.237854,114.226288 576.678467,117.551079 578.113586,121.414513 
	C578.780701,123.210449 581.847717,124.924675 584.001465,125.175377 
	C587.534485,125.586624 589.384216,122.849342 589.545105,119.482330 
	C589.735107,115.508308 587.712585,113.245132 582.815674,113.206177 
z" class="colorFFF svgShape"></path><path fill="#ffffff" d="M540.973755 134.97493C546.339417 132.754471 551.445618 130.793411 557.508301 128.464981 557.508301 125.135841 557.508301 120.077187 557.508301 114.486671 561.433655 114.205521 564.986084 113.951088 568.912476 113.669861 568.912476 121.521439 568.922363 129.113312 568.909241 136.705139 568.89917 142.536957 568.712646 148.374512 568.939514 154.196442 568.994873 155.61705 570.364441 156.986435 571.129761 158.379379 571.846863 158.520554 572.563965 158.661728 573.281128 158.802902 571.703247 161.06842 570.61377 164.270981 568.444397 165.401657 564.117126 167.657043 560.925232 164.869904 558.690125 160.924362 554.70697 164.480225 550.904602 167.673599 545.206848 165.061829 539.356934 162.380295 536.961731 157.522247 536.335388 151.593491 535.70697 145.644913 536.433533 139.93045 540.973755 134.97493M549.757385 139.156326C546.698303 143.095703 545.901367 150.733093 548.814514 154.448441 549.957825 155.906631 552.770081 156.962021 554.590271 156.68364 555.933289 156.478271 557.694336 153.900055 557.878784 152.225922 558.347229 147.97435 558.034424 143.636673 558.034424 138.80217 555.242432 138.80217 552.860352 138.80217 549.757385 139.156326zM465.68454 124.916107C465.189941 126.852272 464.783875 128.403366 464.283325 130.315338 460.864746 129.048676 457.882019 127.284149 454.765747 127.003677 452.399384 126.790703 449.863068 128.466217 447.402405 129.301422 448.796265 131.251999 449.836456 133.678772 451.668457 135.03952 454.295197 136.99054 457.596497 138.001541 460.440002 139.698425 470.155884 145.496445 470.264465 157.303741 460.511322 163.13504 451.856842 168.309464 443.014862 166.408264 433.986237 163.346588 434.667816 159.357513 435.274933 155.804077 435.973572 151.715118 438.879425 153.260834 441.206177 154.750809 443.725952 155.757935 445.692017 156.543777 447.992218 157.326736 449.970673 157.01416 451.950653 156.701355 453.715546 155.027313 455.574707 153.949951 454.53595 152.256363 453.866943 150.043762 452.377563 148.982788 449.70343 147.077866 446.527008 145.883118 443.577667 144.358414 438.477631 141.721909 435.029968 137.850342 435.379974 131.798264 435.753479 125.340103 439.384583 121.049492 445.309814 118.688858 452.36496 115.878059 459.26712 116.986946 466.396362 119.540833 466.175232 121.311256 465.974152 122.921135 465.68454 124.916107z" class="color070707 svgShape"></path><path fill="#ffffff" d="
M292.988159,166.194122 
	C288.052368,165.467239 283.529633,164.741257 278.561371,163.943771 
	C279.318512,159.396378 279.927887,155.736465 280.500793,152.295609 
	C285.194336,154.045456 289.222229,156.106750 293.484680,156.887527 
	C295.457275,157.248871 297.887207,155.113525 300.109802,154.110107 
	C298.846954,152.210083 297.959991,149.799515 296.233856,148.528809 
	C293.596527,146.587341 290.318848,145.541748 287.422913,143.919632 
	C282.758484,141.306961 279.750336,137.560684 280.006348,131.881042 
	C280.262756,126.193092 283.165894,122.104866 288.064056,119.539406 
	C295.567139,115.609581 303.157410,116.831291 311.294189,119.564819 
	C310.563263,123.210495 309.872223,126.657280 309.116089,130.428787 
	C305.329315,129.027084 302.320831,127.235809 299.185944,126.977341 
	C296.869476,126.786369 294.388306,128.592865 291.980530,129.509430 
	C293.326111,131.353592 294.358521,133.605942 296.096130,134.939224 
	C298.297180,136.628098 301.082825,137.547806 303.596344,138.838242 
	C309.208313,141.719437 312.969330,145.788559 312.136444,152.637405 
	C311.336243,159.217468 307.143463,162.993881 301.241425,164.972366 
	C298.769226,165.801102 296.022919,165.812210 292.988159,166.194122 
z" class="color080808 svgShape"></path><path fill="#ffffff" d="
M515.689697,156.302185 
	C517.114563,154.518341 518.861450,152.912216 518.952881,151.216812 
	C519.292847,144.912933 519.088501,138.579681 519.088501,131.769547 
	C522.653748,131.424500 526.069763,131.093887 529.893738,130.723785 
	C529.893738,135.896469 529.413452,140.869843 530.039795,145.699738 
	C530.578674,149.855652 526.620605,155.250046 533.167542,158.444168 
	C532.819336,161.139999 533.558228,164.422943 529.316284,165.700226 
	C524.303894,167.209518 521.936584,164.193695 519.774109,160.465424 
	C517.750427,161.895233 515.970215,163.377167 513.990479,164.510620 
	C507.510498,168.220596 499.625824,164.295303 499.303192,156.911514 
	C498.941498,148.634415 499.220062,140.329330 499.220062,131.629852 
	C502.859375,131.354614 506.299652,131.094437 510.187592,130.800400 
	C510.187592,137.743408 510.187500,144.346344 510.187653,150.949280 
	C510.187744,154.336060 510.939941,157.029465 515.689697,156.302185 
z" class="color090909 svgShape"></path><path fill="#ffffff" d="M359.767578 168.985291C364.092499 167.04686 364.486511 164.490356 362.869171 160.49263 359.019653 150.977432 355.692932 141.250748 351.988953 131.157013 355.842285 131.157013 359.26944 131.157013 362.847137 131.157013 364.929535 138.381149 367.074524 145.822327 369.219482 153.263489 369.576355 153.309967 369.933258 153.356445 370.290131 153.402924 372.412567 146.18103 374.535004 138.959122 376.790375 131.284973 379.397705 131.284973 382.468933 131.284973 386.14978 131.284973 384.930298 134.990173 383.750854 138.66774 382.509796 142.324387 380.003326 149.70961 377.529083 157.106842 374.916077 164.454498 372.893951 170.140717 369.410583 174.570724 363.765167 177.216354 356.167633 180.776794 354.952972 180.388748 351.115997 172.189331 353.890869 171.170319 356.650879 170.156769 359.767578 168.985291zM597.558105 159.257187C596.747925 154.390472 595.27179 149.749939 595.715637 145.300949 596.940613 133.0215 607.835938 126.854774 619.432617 131.311996 620.356018 131.666916 621.282898 132.112717 622.07312 132.698532 629.193848 137.977386 629.042847 145.490982 627.966797 153.06929 627.044495 159.564453 623.318848 164.013 616.819885 165.727692 608.847351 167.831161 602.354736 165.679672 597.558105 159.257187M610.215698 158.26944C613.414673 159.148254 616.403992 158.398712 616.799133 154.986755 617.307129 150.601135 617.037659 146.037842 616.386902 141.657486 616.184448 140.294846 613.781982 138.611908 612.15448 138.304306 610.746155 138.038116 608.468506 139.088531 607.519104 140.297974 604.774902 143.793839 606.169373 154.340881 610.215698 158.26944z" class="color080808 svgShape"></path><path fill="#ffffff" d="
M417.067627,162.853912 
	C412.326904,166.996811 401.782227,167.339539 395.873535,163.949890 
	C388.089203,159.484222 385.287933,147.612457 389.908783,138.671173 
	C393.808319,131.125656 404.368378,127.825150 412.431213,131.631927 
	C418.100128,134.308456 421.375580,141.765381 419.091309,147.712875 
	C418.646484,148.871063 416.466858,149.933533 415.018402,150.032791 
	C409.889709,150.384247 404.731049,150.296707 399.584076,150.393494 
	C399.461365,150.395813 399.342621,150.608871 399.222046,150.723648 
	C400.102905,158.003799 403.223816,158.873032 418.476227,155.649384 
	C417.985596,158.126724 417.558014,160.285736 417.067627,162.853912 
M399.219482,142.216705 
	C399.649353,142.849640 400.048889,144.003403 400.514008,144.030487 
	C403.409637,144.199188 406.319977,144.115524 409.225433,144.115524 
	C409.479034,143.636307 409.732605,143.157074 409.986206,142.677856 
	C408.845184,141.132202 408.014557,138.815491 406.497192,138.204636 
	C403.521973,137.006882 401.029449,138.511185 399.219482,142.216705 
z" class="color070707 svgShape"></path><path fill="#ffffff" d="
M489.743317,156.879913 
	C491.419891,156.582657 492.686798,156.308929 493.978241,156.029877 
	C494.574890,163.468491 493.065063,165.377502 486.315338,165.961441 
	C480.125244,166.496964 475.097168,162.570297 474.938019,156.796951 
	C474.773315,150.822540 474.901367,144.840073 474.901367,138.522888 
	C473.545685,138.304550 472.151367,138.080002 470.160248,137.759323 
	C470.353729,135.722855 470.549103,133.666183 470.763794,131.406082 
	C472.228424,131.222839 473.473236,131.067108 474.934998,130.884232 
	C474.934998,129.127945 474.934998,127.499237 474.934998,125.394646 
	C478.570374,124.291328 482.115356,123.215454 486.173645,121.983788 
	C486.173645,125.121613 486.173645,127.845078 486.173645,131.059677 
	C489.089752,131.059677 491.666199,131.059677 494.845612,131.059677 
	C494.618469,133.649658 494.438049,135.706726 494.228729,138.093658 
	C491.529633,138.093658 489.091278,138.093658 485.784821,138.093658 
	C485.784821,143.525146 485.573547,148.637131 485.946381,153.706146 
	C486.030396,154.848770 488.150696,155.841629 489.743317,156.879913 
z" class="color090909 svgShape"></path><path fill="#ffffff" d="
M329.673035,149.899506 
	C329.673035,154.877686 329.673035,159.855865 329.673035,165.183197 
	C326.489990,165.183197 322.936707,165.183197 319.065063,165.183197 
	C319.065063,148.459412 319.065063,131.594849 319.065063,114.330597 
	C322.774536,114.124069 326.218231,113.932335 329.922760,113.726082 
	C329.922760,124.007195 329.922760,134.077545 329.620483,144.849564 
	C329.436462,147.000656 329.554749,148.450089 329.673035,149.899506 
z" class="color060606 svgShape"></path><path fill="#ffffff" d="
M330.045288,149.690033 
	C329.554749,148.450089 329.436462,147.000656 329.546753,145.318420 
	C332.130859,141.966293 335.076294,139.121048 336.686371,135.655396 
	C338.525513,131.696747 340.868195,130.201096 345.045166,130.877045 
	C346.808960,131.162460 348.657379,130.924622 351.254639,130.924622 
	C348.242340,135.528732 345.708435,139.743561 342.810944,143.691574 
	C341.272644,145.787613 341.342926,147.276581 342.758423,149.360764 
	C345.998169,154.130997 348.973267,159.080963 352.519897,164.692093 
	C348.745667,165.230347 345.556366,166.020584 342.376556,165.984116 
	C340.980652,165.968094 339.123657,164.570328 338.305817,163.275757 
	C335.479340,158.801865 333.017975,154.097290 330.045288,149.690033 
z" class="color090909 svgShape"></path><path fill="#ffffff" d="
M589.309448,134.189331 
	C589.296265,144.758789 589.296265,154.880722 589.296265,165.266220 
	C585.393066,165.266220 581.835022,165.266220 578.044189,165.266220 
	C578.044189,154.125137 578.044189,143.059311 578.044189,131.651779 
	C581.225037,131.408035 584.196655,130.984802 587.149597,131.089142 
	C587.904175,131.115814 588.599792,132.812424 589.309448,134.189331 
z" class="color070707 svgShape"></path><path fill="#3387d4" d="
M174.138336,166.589783 
	C176.125732,170.794067 178.113144,174.998352 179.637115,179.601318 
	C177.580032,181.031174 175.862274,181.913605 174.415588,183.120880 
	C169.667587,187.083084 165.018051,191.163269 160.330673,195.198120 
	C158.637756,193.343643 156.944824,191.489182 155.257507,189.042145 
	C161.554855,181.162964 167.846588,173.876373 174.138336,166.589783 
z" class="color3387D4 svgShape"></path><path fill="#4899ce" d="
M217.989853,122.033371 
	C219.931274,123.747910 221.872696,125.462440 223.831573,127.772644 
	C221.115311,133.284454 213.295990,134.628510 214.188950,142.105484 
	C214.201309,142.208893 213.982346,142.351578 213.856354,142.458221 
	C210.833725,145.016876 207.809036,147.573105 204.784714,150.129791 
	C202.535690,148.001663 200.286682,145.873566 198.240326,143.280029 
	C204.958603,135.887527 211.474228,128.960449 217.989853,122.033371 
z" class="color4899CE svgShape"></path><path fill="#8ed5b9" d="
M235.484161,139.920120 
	C236.613647,142.371613 237.743134,144.823105 238.545563,147.674911 
	C235.513138,150.011627 232.807800,151.948029 229.770599,154.121979 
	C231.502045,156.126770 232.742920,157.563538 234.024292,159.341278 
	C234.697891,161.114044 235.330994,162.545807 235.623383,164.018890 
	C232.178986,166.719055 229.075272,169.377914 225.715729,171.819565 
	C223.526443,168.776901 221.593018,165.951477 219.996414,162.990158 
	C222.566177,160.729065 224.802826,158.607712 227.031036,156.477539 
	C229.146317,154.455307 229.132553,152.885254 225.900391,151.670578 
	C225.125320,147.042801 229.348404,142.084152 235.484161,139.920120 
z" class="color8ED5B9 svgShape"></path><path fill="#039efd" d="
M152.040558,116.014297 
	C153.691727,114.358223 155.342880,112.702148 157.625259,111.073036 
	C159.706711,112.435638 161.026031,113.962898 162.636902,115.063393 
	C165.258652,116.854492 168.021835,118.457642 170.818634,119.967255 
	C173.006714,121.148293 175.495041,121.824188 177.557816,123.171738 
	C179.590561,124.499649 181.255890,126.390007 183.082413,128.033600 
	C180.949783,129.983414 178.817139,131.933228 176.228912,133.697540 
	C174.408127,132.066788 173.141571,130.508667 171.651581,129.206131 
	C169.959213,127.726654 168.174957,126.286209 166.231094,125.179184 
	C164.311508,124.085991 161.938232,123.733368 160.130203,122.513222 
	C157.272964,120.585037 154.721466,118.203804 152.040558,116.014297 
z" class="color039EFD svgShape"></path><path fill="#03cafd" d="
M197.952942,108.985718 
	C196.825714,111.860420 195.698502,114.735123 194.136353,117.499313 
	C191.614868,115.251671 189.708923,112.880035 187.366089,111.075714 
	C186.182892,110.164490 184.213211,110.257820 182.591064,109.937874 
	C180.905609,109.605453 178.930984,109.771858 177.574875,108.928711 
	C174.263077,106.869675 171.235519,104.353485 168.093536,102.021332 
	C169.791458,100.406464 171.489365,98.791588 173.840088,97.093185 
	C176.378967,98.556168 178.372879,99.990433 180.126144,101.675133 
	C182.855637,104.297890 185.456528,106.483566 188.341995,101.771240 
	C191.724060,104.309990 194.838501,106.647858 197.952942,108.985718 
z" class="color03CAFD svgShape"></path><path fill="#08e2fd" d="
M198.335114,219.121597 
	C195.925812,223.393234 193.516495,227.664871 190.940155,232.232666 
	C184.754044,226.384384 177.738129,221.143158 176.839783,211.372955 
	C179.725128,212.718353 182.226791,214.415512 184.877197,216.213593 
	C186.055405,214.636246 186.996094,213.376892 188.040115,211.979202 
	C191.673584,214.500000 195.004349,216.810806 198.335114,219.121597 
z" class="color08E2FD svgShape"></path><path fill="#02adfd" d="
M183.395477,127.934563 
	C181.255890,126.390007 179.590561,124.499649 177.557816,123.171738 
	C175.495041,121.824188 173.006714,121.148293 170.818634,119.967255 
	C168.021835,118.457642 165.258652,116.854492 162.636902,115.063393 
	C161.026031,113.962898 159.706711,112.435638 157.920303,110.954330 
	C159.529144,109.054832 161.474152,107.300995 163.759628,105.752235 
	C168.436081,110.186073 171.528152,116.381569 179.285263,115.148369 
	C180.246353,114.995583 181.559143,116.249191 182.521286,117.070839 
	C184.761612,118.983994 186.887436,121.031197 189.059662,123.024086 
	C187.275955,124.627899 185.492249,126.231712 183.395477,127.934563 
z" class="color02ADFD svgShape"></path><path fill="#02bbfc" d="
M189.369675,122.919472 
	C186.887436,121.031197 184.761612,118.983994 182.521286,117.070839 
	C181.559143,116.249191 180.246353,114.995583 179.285263,115.148369 
	C171.528152,116.381569 168.436081,110.186073 164.052155,105.634117 
	C165.158371,104.284233 166.312531,103.257545 167.780121,102.126099 
	C171.235519,104.353485 174.263077,106.869675 177.574875,108.928711 
	C178.930984,109.771858 180.905609,109.605453 182.591064,109.937874 
	C184.213211,110.257820 186.182892,110.164490 187.366089,111.075714 
	C189.708923,112.880035 191.614868,115.251671 193.847702,117.686829 
	C192.555878,119.594864 191.117783,121.204865 189.369675,122.919472 
z" class="color02BBFC svgShape"></path><path fill="#2277db" d="
M195.769669,139.120255 
	C195.305008,134.995926 194.840347,130.871582 194.938843,126.356102 
	C200.734070,121.948837 205.966171,117.932724 211.198273,113.916603 
	C212.742401,115.711266 214.286530,117.505920 215.746063,119.887115 
	C214.040939,121.879150 212.364563,123.225761 210.810226,124.700951 
	C205.772614,129.481995 200.779755,134.310211 195.769669,139.120255 
z" class="color2277DB svgShape"></path><path fill="#028ffd" d="
M151.741409,116.141159 
	C154.721466,118.203804 157.272964,120.585037 160.130203,122.513222 
	C161.938232,123.733368 164.311508,124.085991 166.231094,125.179184 
	C168.174957,126.286209 169.959213,127.726654 171.651581,129.206131 
	C173.141571,130.508667 174.408127,132.066788 175.917847,133.823181 
	C174.613373,135.737473 173.164413,137.340652 171.275940,138.778656 
	C167.774246,135.866745 165.127213,131.808777 161.553604,130.677338 
	C156.045425,128.933395 152.293686,125.340843 148.081604,121.701141 
	C147.989563,121.224350 147.950867,121.033997 147.912186,120.843643 
	C149.088867,119.318436 150.265549,117.793228 151.741409,116.141159 
z" class="color028FFD svgShape"></path><path fill="#05dafc" d="
M198.129105,108.642769 
	C194.838501,106.647858 191.724060,104.309990 188.341995,101.771240 
	C185.456528,106.483566 182.855637,104.297890 180.126144,101.675133 
	C178.372879,99.990433 176.378967,98.556168 174.132324,96.958633 
	C175.275604,94.963715 176.779495,93.019814 178.724808,91.226524 
	C186.552307,97.524063 186.552307,97.524063 190.504379,93.268822 
	C192.591644,94.198624 194.630875,95.107033 196.670120,96.015442 
	C197.215164,100.110237 197.760208,104.205025 198.129105,108.642769 
z" class="color05DAFC svgShape"></path><path fill="#028ffd" d="
M197.845703,179.658142 
	C199.313278,178.098831 200.780853,176.539536 202.691406,175.158585 
	C208.549316,183.631577 218.780258,184.951859 225.785690,190.949173 
	C225.983521,191.118546 226.431030,190.996277 226.821869,191.279160 
	C226.920700,191.728073 226.959793,191.907806 226.998901,192.087524 
	C225.186646,194.244324 223.374374,196.401123 221.233429,198.351593 
	C216.883057,194.000412 214.513138,187.394333 206.787216,188.731384 
	C206.327805,188.810883 205.636032,188.118561 205.196899,187.649994 
	C202.722031,185.008957 200.291397,182.326477 197.845703,179.658142 
z" class="color028FFD svgShape"></path><path fill="#03cafd" d="
M177.249161,201.994476 
	C178.580597,199.345551 179.912033,196.696640 181.720383,194.174347 
	C184.287964,196.191238 186.250504,198.257858 188.517853,199.904861 
	C189.855103,200.876236 191.660858,201.225220 193.281860,201.778046 
	C195.735275,202.614777 198.426727,203.012085 200.622330,204.279755 
	C203.267731,205.807144 205.500137,208.049805 207.911346,209.982819 
	C206.156494,211.602539 204.401657,213.222275 202.198975,214.661865 
	C199.698364,212.586044 197.732361,210.582611 195.560974,208.834290 
	C194.213837,207.749649 191.696976,205.946274 191.171173,206.354370 
	C186.689178,209.832932 184.837387,205.883224 182.120544,203.770737 
	C180.821655,202.760773 178.892731,202.561142 177.249161,201.994476 
z" class="color03CAFD svgShape"></path><path fill="#0184fd" d="
M226.762115,191.009979 
	C226.431030,190.996277 225.983521,191.118546 225.785690,190.949173 
	C218.780258,184.951859 208.549316,183.631577 202.983917,175.012115 
	C203.898346,173.206192 204.963257,171.725052 206.643799,170.100525 
	C213.797440,173.976562 220.335449,177.996002 226.949829,182.459732 
	C226.938171,185.606003 226.850143,188.307999 226.762115,191.009979 
z" class="color0184FD svgShape"></path><path fill="#039efd" d="
M197.538437,179.789368 
	C200.291397,182.326477 202.722031,185.008957 205.196899,187.649994 
	C205.636032,188.118561 206.327805,188.810883 206.787216,188.731384 
	C214.513138,187.394333 216.883057,194.000412 220.933624,198.477249 
	C219.934158,199.848862 218.905823,200.888504 217.256790,201.886627 
	C215.306793,200.621033 214.090805,199.235001 212.623352,198.208420 
	C210.006317,196.377579 207.254379,193.453476 204.527267,193.418045 
	C201.645538,193.380600 200.056915,192.616791 198.301910,190.838074 
	C196.235840,188.744064 194.033493,186.784546 191.890228,184.766724 
	C193.670547,183.151367 195.450867,181.535980 197.538437,179.789368 
z" class="color039EFD svgShape"></path><path fill="#02adfd" d="
M191.577377,184.888702 
	C194.033493,186.784546 196.235840,188.744064 198.301910,190.838074 
	C200.056915,192.616791 201.645538,193.380600 204.527267,193.418045 
	C207.254379,193.453476 210.006317,196.377579 212.623352,198.208420 
	C214.090805,199.235001 215.306793,200.621033 216.960449,201.992752 
	C215.430496,203.750931 213.576202,205.361481 211.300827,206.826904 
	C208.500061,204.202393 206.195480,201.643784 203.704239,199.282089 
	C202.688080,198.318802 200.869293,196.865585 200.095352,197.201462 
	C195.269592,199.295761 193.315384,195.529099 190.569290,193.135345 
	C189.132629,191.883057 187.387085,190.985123 185.781052,189.927139 
	C187.608871,188.288315 189.436691,186.649506 191.577377,184.888702 
z" class="color02ADFD svgShape"></path><path fill="#05dafc" d="
M177.089920,202.373657 
	C178.892731,202.561142 180.821655,202.760773 182.120544,203.770737 
	C184.837387,205.883224 186.689178,209.832932 191.171173,206.354370 
	C191.696976,205.946274 194.213837,207.749649 195.560974,208.834290 
	C197.732361,210.582611 199.698364,212.586044 201.894455,214.792175 
	C200.977722,216.337891 199.917664,217.573151 198.596375,218.965012 
	C195.004349,216.810806 191.673584,214.500000 188.040115,211.979202 
	C186.996094,213.376892 186.055405,214.636246 184.877197,216.213593 
	C182.226791,214.415512 179.725128,212.718353 176.896469,211.014740 
	C176.689865,208.256500 176.810272,205.504669 177.089920,202.373657 
z" class="color05DAFC svgShape"></path><path fill="#0184fd" d="
M148.134964,121.987579 
	C152.293686,125.340843 156.045425,128.933395 161.553604,130.677338 
	C165.127213,131.808777 167.774246,135.866745 170.985550,138.933624 
	C170.169662,140.680573 169.204666,142.107346 167.672150,143.724396 
	C165.460266,142.832687 163.865692,141.664001 162.161896,140.685486 
	C157.683685,138.113586 153.157928,135.624481 148.471649,132.848083 
	C147.850479,131.669510 147.408768,130.745239 146.916748,129.411926 
	C147.289261,126.664436 147.712112,124.326012 148.134964,121.987579 
z" class="color0184FD svgShape"></path><path fill="#0175fb" d="
M226.873444,182.015442 
	C220.335449,177.996002 213.797440,173.976562 206.876587,169.903137 
	C207.691071,166.416641 208.888397,162.984131 210.507416,159.286285 
	C216.263153,165.356033 221.597198,171.691086 226.960663,178.424988 
	C226.951202,179.887711 226.912323,180.951569 226.873444,182.015442 
z" class="color0175FB svgShape"></path><path fill="#b1f1b0" d="
M148.081604,121.701141 
	C147.712112,124.326012 147.289261,126.664436 146.837189,129.871063 
	C147.098175,133.137146 147.388367,135.535034 147.257736,137.941742 
	C139.255432,139.945038 136.389297,145.399475 140.012115,151.319595 
	C140.364441,152.424545 140.684006,153.210876 140.816254,154.263046 
	C138.734070,156.027130 136.839203,157.525391 134.944321,159.023636 
	C132.984238,148.551483 136.116257,139.049393 140.848587,129.993500 
	C142.515198,126.804245 145.136917,124.114105 147.617371,121.019867 
	C147.950867,121.033997 147.989563,121.224350 148.081604,121.701141 
z" class="colorB1F1B0 svgShape"></path><path fill="#02bbfc" d="
M185.487274,190.023407 
	C187.387085,190.985123 189.132629,191.883057 190.569290,193.135345 
	C193.315384,195.529099 195.269592,199.295761 200.095352,197.201462 
	C200.869293,196.865585 202.688080,198.318802 203.704239,199.282089 
	C206.195480,201.643784 208.500061,204.202393 211.018448,207.018707 
	C210.270477,208.172150 209.383789,208.988647 208.204224,209.893982 
	C205.500137,208.049805 203.267731,205.807144 200.622330,204.279755 
	C198.426727,203.012085 195.735275,202.614777 193.281860,201.778046 
	C191.660858,201.225220 189.855103,200.876236 188.517853,199.904861 
	C186.250504,198.257858 184.287964,196.191238 182.017578,193.995026 
	C182.956390,192.499252 184.074936,191.309464 185.487274,190.023407 
z" class="color02BBFC svgShape"></path><path fill="#b1f1b0" d="
M226.949829,182.459732 
	C226.912323,180.951569 226.951202,179.887711 227.091858,178.107590 
	C227.257828,176.938675 227.321991,176.486008 227.743164,176.026993 
	C234.943008,174.431137 237.983231,169.775253 235.964096,163.977585 
	C235.330994,162.545807 234.697891,161.114044 234.325378,159.199677 
	C236.370712,157.475952 238.155472,156.234833 239.940231,154.993729 
	C241.064301,169.009125 236.980637,181.279282 227.305786,191.933029 
	C226.959793,191.907806 226.920700,191.728073 226.821854,191.279144 
	C226.850143,188.307999 226.938171,185.606003 226.949829,182.459732 
z" class="colorB1F1B0 svgShape"></path><path fill="#72bcc2" d="
M235.279877,139.638153 
	C229.348404,142.084152 225.125320,147.042801 225.592865,151.813354 
	C222.910233,155.287643 220.380997,158.302719 217.532043,161.217133 
	C215.809326,159.738586 214.406311,158.360672 213.196167,156.715942 
	C221.147308,150.819473 222.204697,149.019592 219.925659,143.845993 
	C223.696243,140.927734 227.654587,137.864166 231.612946,134.800598 
	C232.767166,136.319138 233.921387,137.837662 235.279877,139.638153 
z" class="color72BCC2 svgShape"></path><path fill="#0175fb" d="
M148.651108,133.102386 
	C153.157928,135.624481 157.683685,138.113586 162.161896,140.685486 
	C163.865692,141.664001 165.460266,142.832687 167.441711,143.958511 
	C166.746262,147.182877 165.713715,150.363434 164.199768,153.709595 
	C157.332108,147.940186 150.082901,142.631073 148.651108,133.102386 
z" class="color0175FB svgShape"></path><path fill="#4899ce" d="
M174.007904,166.315659 
	C167.846588,173.876373 161.554855,181.162964 155.114655,188.753113 
	C153.686539,187.997391 152.406891,186.938156 151.143738,185.307373 
	C152.663986,183.432861 154.378525,182.305237 155.634262,180.795914 
	C160.528000,174.913940 165.276352,168.910980 170.078766,162.953018 
	C171.345001,163.982529 172.611252,165.012039 174.007904,166.315659 
z" class="color4899CE svgShape"></path><path fill="#72bcc2" d="
M143.723663,179.117050 
	C142.765839,177.992874 141.808029,176.868698 141.081741,175.301575 
	C144.741409,171.676361 148.169540,168.494064 151.759140,165.161880 
	C150.582016,164.207687 149.824356,163.593491 149.041809,162.735977 
	C149.016953,162.492645 148.986694,162.004410 149.135071,161.704056 
	C152.269501,158.566147 155.255539,155.728607 158.512726,153.036102 
	C159.703644,154.201767 160.623428,155.222412 161.359619,156.590668 
	C158.577393,159.665070 155.978760,162.391861 153.241623,165.263977 
	C153.953857,166.283340 154.688782,167.335190 155.875137,169.033127 
	C151.782898,172.429077 147.753281,175.773056 143.723663,179.117050 
z" class="color72BCC2 svgShape"></path><path fill="#58a6ca" d="
M169.937103,162.673767 
	C165.276352,168.910980 160.528000,174.913940 155.634262,180.795914 
	C154.378525,182.305237 152.663986,183.432861 150.971771,185.045471 
	C149.949234,184.765686 149.115189,184.176254 148.169739,182.968201 
	C149.159592,180.945999 150.203232,179.492096 151.375656,178.150757 
	C153.104874,176.172424 156.185013,174.443314 156.471420,172.310196 
	C157.329056,165.922775 161.663422,162.882767 166.311630,159.817444 
	C167.472900,160.676483 168.634171,161.535507 169.937103,162.673767 
z" class="color58A6CA svgShape"></path><path fill="#176fde" d="
M179.982056,185.008118 
	C179.954834,190.295074 177.849350,194.679001 174.182739,198.391296 
	C171.525330,201.081833 168.879974,203.784271 165.884262,206.832367 
	C164.360443,203.410400 163.112915,200.608887 162.148193,197.423355 
	C163.947678,196.198975 165.557495,195.490051 166.963776,194.493851 
	C171.344620,191.390396 175.648392,188.178162 179.982056,185.008118 
z" class="color176FDE svgShape"></path><path fill="#64b0c7" d="
M231.485367,134.479706 
	C227.654587,137.864166 223.696243,140.927734 219.925659,143.845993 
	C222.204697,149.019592 221.147308,150.819473 212.925537,156.618057 
	C211.758987,156.570862 211.055908,156.354706 210.352844,156.138550 
	C210.220169,155.739761 210.087509,155.340973 209.977936,154.257050 
	C211.310394,151.905258 212.600830,150.223251 213.934692,148.576416 
	C215.168106,147.053574 217.669983,145.394287 217.485321,144.098267 
	C216.854401,139.670181 220.028122,138.118271 222.384293,135.738312 
	C224.096909,134.008392 225.467850,131.940231 226.991119,130.022888 
	C228.446686,131.401550 229.902237,132.780197 231.485367,134.479706 
z" class="color64B0C7 svgShape"></path><path fill="#08e2fd" d="
M196.623001,95.683304 
	C194.630875,95.107033 192.591644,94.198624 190.504379,93.268822 
	C186.552307,97.524063 186.552307,97.524063 179.012329,91.051720 
	C180.379761,87.442810 181.901123,84.159317 183.969360,79.695496 
	C188.403610,85.202271 192.489746,90.276726 196.623001,95.683304 
z" class="color08E2FD svgShape"></path><path fill="#58a6ca" d="
M226.834030,129.755173 
	C225.467850,131.940231 224.096909,134.008392 222.384293,135.738312 
	C220.028122,138.118271 216.854401,139.670181 217.485321,144.098267 
	C217.669983,145.394287 215.168106,147.053574 213.934692,148.576416 
	C212.600830,150.223251 211.310394,151.905258 209.950089,153.941895 
	C208.308105,153.108627 206.717041,151.905411 204.955353,150.415985 
	C207.809036,147.573105 210.833725,145.016876 213.856354,142.458221 
	C213.982346,142.351578 214.201309,142.208893 214.188950,142.105484 
	C213.295990,134.628510 221.115311,133.284454 224.005020,128.045410 
	C224.999664,128.310822 225.838303,128.899155 226.834030,129.755173 
z" class="color58A6CA svgShape"></path><path fill="#ffffff" d="
M583.199646,113.178452 
	C587.712585,113.245132 589.735107,115.508308 589.545105,119.482330 
	C589.384216,122.849342 587.534485,125.586624 584.001465,125.175377 
	C581.847717,124.924675 578.780701,123.210449 578.113586,121.414513 
	C576.678467,117.551079 578.237854,114.226288 583.199646,113.178452 
z" class="color090909 svgShape"></path><path fill="#176fde" d="
M211.165161,113.521263 
	C205.966171,117.932724 200.734070,121.948837 195.128693,125.993668 
	C195.824326,116.981552 203.222687,112.605865 209.263474,105.913925 
	C210.024673,108.851852 210.578369,110.988892 211.165161,113.521263 
z" class="color176FDE svgShape"></path><path fill="#64b0c7" d="
M166.160492,159.564056 
	C161.663422,162.882767 157.329056,165.922775 156.471420,172.310196 
	C156.185013,174.443314 153.104874,176.172424 151.375656,178.150757 
	C150.203232,179.492096 149.159592,180.945999 148.018921,182.697571 
	C146.672653,181.924286 145.365829,180.802979 143.891327,179.399353 
	C147.753281,175.773056 151.782898,172.429077 155.875137,169.033127 
	C154.688782,167.335190 153.953857,166.283340 153.241623,165.263977 
	C155.978760,162.391861 158.577393,159.665070 161.674774,156.759583 
	C162.874512,156.718201 163.575485,156.855515 164.276474,156.992828 
	C164.854095,157.765442 165.431717,158.538040 166.160492,159.564056 
z" class="color64B0C7 svgShape"></path><path fill="#3387d4" d="
M195.848969,139.439880 
	C200.779755,134.310211 205.772614,129.481995 210.810226,124.700951 
	C212.364563,123.225761 214.040939,121.879150 215.852905,120.197586 
	C216.612106,120.446037 217.179855,120.970581 217.868729,121.764244 
	C211.474228,128.960449 204.958603,135.887527 198.124313,142.964066 
	C197.179871,141.995514 196.554077,140.877502 195.848969,139.439880 
z" class="color3387D4 svgShape"></path><path fill="#2277db" d="
M180.003510,184.591309 
	C175.648392,188.178162 171.344620,191.390396 166.963776,194.493851 
	C165.557495,195.490051 163.947678,196.198975 162.039871,197.066223 
	C161.278244,196.645798 160.907745,196.198517 160.433960,195.474670 
	C165.018051,191.163269 169.667587,187.083084 174.415588,183.120880 
	C175.862274,181.913605 177.580032,181.031174 179.532288,180.003876 
	C179.935593,181.396667 179.980270,182.785568 180.003510,184.591309 
z" class="color2277DB svgShape"></path><path fill="#7fc8bd" d="
M149.066681,162.979309 
	C149.824356,163.593491 150.582016,164.207687 151.759140,165.161880 
	C148.169540,168.494064 144.741409,171.676361 140.971832,174.998718 
	C139.750961,173.689056 138.871536,172.239288 138.142273,170.178040 
	C142.137405,167.785492 143.650436,162.190292 149.066681,162.979309 
z" class="color7FC8BD svgShape"></path><path fill="#0f6681" d="
M164.349716,156.646378 
	C163.575485,156.855515 162.874512,156.718201 161.858368,156.411957 
	C160.623428,155.222412 159.703644,154.201767 158.340500,152.758148 
	C156.402939,150.843414 154.908737,149.351685 153.224213,147.602142 
	C152.192352,146.200455 151.350830,145.056580 150.378448,143.592010 
	C149.391251,141.491837 148.534897,139.712387 147.678558,137.932922 
	C147.388367,135.535034 147.098175,133.137146 146.887527,130.280121 
	C147.408768,130.745239 147.850479,131.669510 148.471649,132.848083 
	C150.082901,142.631073 157.332108,147.940186 164.042267,154.038727 
	C164.385071,154.901474 164.404022,155.600708 164.349716,156.646378 
z" class="color0F6681 svgShape"></path><path fill="#8ed5b9" d="
M149.041809,162.735977 
	C143.650436,162.190292 142.137405,167.785492 138.094284,169.851486 
	C137.227188,168.349960 136.558289,166.563477 136.239868,164.363434 
	C139.406601,162.300781 142.222839,160.651688 145.319962,159.135818 
	C146.729446,160.180832 147.858078,161.092621 148.986694,162.004410 
	C148.986694,162.004410 149.016953,162.492645 149.041809,162.735977 
z" class="color8ED5B9 svgShape"></path><path fill="#a0e3b6" d="
M239.974365,154.593048 
	C238.155472,156.234833 236.370712,157.475952 234.284866,158.858673 
	C232.742920,157.563538 231.502045,156.126770 229.770599,154.121979 
	C232.807800,151.948029 235.513138,150.011627 238.556427,148.030518 
	C239.265747,150.054642 239.637131,152.123505 239.974365,154.593048 
z" class="colorA0E3B6 svgShape"></path><path fill="#0f6681" d="
M210.303864,156.468109 
	C211.055908,156.354706 211.758987,156.570862 212.732681,156.884888 
	C214.406311,158.360672 215.809326,159.738586 217.658264,161.443649 
	C218.622665,162.222565 219.141129,162.674301 219.659607,163.126053 
	C221.593018,165.951477 223.526443,168.776901 225.769073,172.169693 
	C226.514236,173.835815 226.950211,174.934570 227.386169,176.033340 
	C227.321991,176.486008 227.257828,176.938675 227.062454,177.708740 
	C221.597198,171.691086 216.263153,165.356033 210.621063,158.894379 
	C210.293640,158.111053 210.274261,157.454361 210.303864,156.468109 
z" class="color0F6681 svgShape"></path><path fill="#a0e3b6" d="
M145.039093,159.002594 
	C142.222839,160.651688 139.406601,162.300781 136.230087,163.985565 
	C135.557846,162.608597 135.245880,161.195938 134.939117,159.403442 
	C136.839203,157.525391 138.734070,156.027130 141.072815,154.434036 
	C142.343918,155.226120 143.171127,156.113052 144.107422,157.260605 
	C144.490707,158.015015 144.764908,158.508804 145.039093,159.002594 
z" class="colorA0E3B6 svgShape"></path><path fill="#040404" d="M550.117798 138.979248C552.860352 138.80217 555.242432 138.80217 558.034424 138.80217 558.034424 143.636673 558.347229 147.97435 557.878784 152.225922 557.694336 153.900055 555.933289 156.478271 554.590271 156.68364 552.770081 156.962021 549.957825 155.906631 548.814514 154.448441 545.901367 150.733093 546.698303 143.095703 550.117798 138.979248zM609.850586 158.152222C606.169373 154.340881 604.774902 143.793839 607.519104 140.297974 608.468506 139.088531 610.746155 138.038116 612.15448 138.304306 613.781982 138.611908 616.184448 140.294846 616.386902 141.657486 617.037659 146.037842 617.307129 150.601135 616.799133 154.986755 616.403992 158.398712 613.414673 159.148254 609.850586 158.152222zM399.414917 141.845856C401.029449 138.511185 403.521973 137.006882 406.497192 138.204636 408.014557 138.815491 408.845184 141.132202 409.986206 142.677856 409.732605 143.157074 409.479034 143.636307 409.225433 144.115524 406.319977 144.115524 403.409637 144.199188 400.514008 144.030487 400.048889 144.003403 399.649353 142.84964 399.414917 141.845856z" class="colorF4F4F4 svgShape"></path><path fill="#a0e3b6" d="
M227.743164,176.026993 
	C226.950211,174.934570 226.514236,173.835815 226.024918,172.386917 
	C229.075272,169.377914 232.178986,166.719055 235.623383,164.018890 
	C237.983231,169.775253 234.943008,174.431137 227.743164,176.026993 
z" class="colorA0E3B6 svgShape"></path><path fill="#7fc8bd" d="
M219.996399,162.990158 
	C219.141129,162.674301 218.622665,162.222565 217.977982,161.544312 
	C220.380997,158.302719 222.910233,155.287643 225.747009,152.129791 
	C229.132553,152.885254 229.146317,154.455307 227.031036,156.477539 
	C224.802826,158.607712 222.566177,160.729065 219.996399,162.990158 
z" class="color7FC8BD svgShape"></path><path fill="#a0e3b6" d="
M147.257736,137.941742 
	C148.534897,139.712387 149.391251,141.491837 149.963455,143.614120 
	C148.398499,144.742813 147.052872,145.441452 145.851410,146.334122 
	C143.845535,147.824432 141.931854,149.438828 139.979355,151.000977 
	C136.389297,145.399475 139.255432,139.945038 147.257736,137.941742 
z" class="colorA0E3B6 svgShape"></path><path fill="#8ed5b9" d="
M140.012115,151.319595 
	C141.931854,149.438828 143.845535,147.824432 145.851410,146.334122 
	C147.052872,145.441452 148.398499,144.742813 150.094315,143.934814 
	C151.350830,145.056580 152.192352,146.200455 152.878952,147.736786 
	C149.815460,151.086151 146.906891,154.043076 143.998337,157.000000 
	C143.171127,156.113052 142.343918,155.226120 141.260132,154.168198 
	C140.684006,153.210876 140.364441,152.424545 140.012115,151.319595 
z" class="color8ED5B9 svgShape"></path><path fill="#7fc8bd" d="
M144.107422,157.260605 
	C146.906891,154.043076 149.815460,151.086151 153.069275,147.994598 
	C154.908737,149.351685 156.402939,150.843414 158.069366,152.613098 
	C155.255539,155.728607 152.269501,158.566147 149.135071,161.704056 
	C147.858078,161.092621 146.729446,160.180832 145.319962,159.135834 
	C144.764908,158.508804 144.490707,158.015015 144.107422,157.260605 
z" class="color7FC8BD svgShape"></path></svg></g></svg>